# xmcd
#
# Track frame offsets: 
#        150
#        10080
#        33804
#        69300
#        96983
#        118368
#        148391
#        179649
#        204957
#        230807
#
# Disc length: 3322 seconds
#
# Revision: 2
# Processed by: cddbd v1.5.1PL0 Copyright (c) Steve Scherf et al.
# Submitted via: ExactAudioCopy v0.95a5
#
DISCID=910cf80a
DTITLE=Eric Clapton - And friends in concert (DVD RIP by Snooker) [CD1
DTITLE=)
DYEAR=1900
DGENRE=Folk/Rock
TTITLE0=Intro/Driftin'
TTITLE1=Hoochie Coochie Man
TTITLE2=River Of Tears
TTITLE3=Goin' Down Slow (With David Sanborn)
TTITLE4=My Favorite Mistake (Sheryl Crow)
TTITLE5=Difficult Kind (Sheryl Crow)
TTITLE6=Little Wing (With Sheryl Crow And David Sanborn)
TTITLE7=Be Happy - You Bring Me Joy (Medley and Mary J. Blige)
TTITLE8=Not Gon' Cry (Mary J. Blige)
TTITLE9=Tears In Heaven
EXTD=\n\n
EXTT0=
EXTT1=
EXTT2=
EXTT3=
EXTT4=
EXTT5=
EXTT6=
EXTT7=
EXTT8=
EXTT9=
PLAYORDER=
